<svg enable-background="new 0 0 512 512" viewBox="0 0 512 512" xmlns="http://www.w3.org/2000/svg"><path d="m415.4 153.5-38.1-38.1c-8.4-8.4-19.8-13-31.7-13h-181.4c-11.8 0-23.3 4.7-31.7 13l-38.1 38.1h-94.4v204.6h51.2c14.1 0 25.4-11.4 25.5-25.4h7.3l67.7 61.1c24.7 20.1 59 20.6 84.5 3 10 8.6 20.8 12.7 32.9 12.7 14.6 0 28.2-5.9 39-19.2 17.7 7 38.6 2.1 51.2-13.4l21-25.8c4.5-5.5 7.3-11.8 8.7-18.4h46.3c.1 14 11.5 25.4 25.5 25.4h51.2v-204.6zm-377 179c-7 0-12.8-5.8-12.8-12.8s5.8-12.8 12.8-12.8 12.8 5.8 12.8 12.8c0 7.1-5.8 12.8-12.8 12.8zm312-5.5-20.9 25.8c-2.2 2.7-6.2 3.2-9 1l-19.1-15.5-24 29.2c-4.8 5.8-12 3.8-14.4 1.9l-29.4-25.2-12.6 15.2c-11.1 13.7-31.4 15.8-44.2 5.3l-77.8-70.4h-22.2v-102.5h33.5l49.4-49.3c1.6-.6 3-1.2 4.6-1.8h45.4l-31 28.4c-23.5 21.5-24.9 57.8-3.5 81 11.8 13 49 33 81.2 3.5l6.6-6 86.6 70.2c2.6 2.4 3 6.4.8 9.2zm84.8-32.7h-55.4c-1.8-2.2-3.9-4.3-6.2-6.2l-82.2-66.7 10-9.1c5.2-4.8 5.6-12.9.8-18.1l-8.7-9.4c-4.8-5.2-12.9-5.5-18.1-.8l-44.2 40.5c-7.6 7-20.6 7.5-27.7 0-7.4-7.9-6.8-20.1 1-27.1l52.5-48.1c5.9-5.4 13.6-8.4 21.6-8.4l67-.2c1.7 0 3.3.6 4.4 1.8l49.4 49.3h35.8zm38.4 38.2c-7 0-12.8-5.8-12.8-12.8s5.8-12.8 12.8-12.8 12.8 5.8 12.8 12.8c0 7.1-5.8 12.8-12.8 12.8z" fill="#ee3723"/></svg>